<mxfile host="Electron" modified="2024-02-07T15:43:36.462Z" agent="Mozilla/5.0 (Macintosh; Intel Mac OS X 10_15_7) AppleWebKit/537.36 (KHTML, like Gecko) draw.io/23.0.2 Chrome/120.0.6099.109 Electron/28.1.0 Safari/537.36" etag="InwyWjw9VY2MpRfZ6UX3" version="23.0.2" type="device">
  <diagram name="Page-1" id="HBOL5hkFHuscUMcLIgPW">
    <mxGraphModel dx="956" dy="585" grid="1" gridSize="10" guides="1" tooltips="1" connect="1" arrows="1" fold="1" page="1" pageScale="1" pageWidth="1169" pageHeight="827" math="0" shadow="0">
      <root>
        <mxCell id="0" />
        <mxCell id="1" parent="0" />
        <mxCell id="IOEPYr8WHagoMLOcUYXM-2" value="" style="ellipse;whiteSpace=wrap;html=1;aspect=fixed;" vertex="1" parent="1">
          <mxGeometry x="200" y="190" width="180" height="180" as="geometry" />
        </mxCell>
        <mxCell id="IOEPYr8WHagoMLOcUYXM-1" value="" style="ellipse;whiteSpace=wrap;html=1;aspect=fixed;" vertex="1" parent="1">
          <mxGeometry x="240" y="230" width="100" height="100" as="geometry" />
        </mxCell>
        <mxCell id="IOEPYr8WHagoMLOcUYXM-3" value="" style="endArrow=classic;html=1;rounded=0;strokeColor=#FF0000;" edge="1" parent="1">
          <mxGeometry width="50" height="50" relative="1" as="geometry">
            <mxPoint x="290" y="270" as="sourcePoint" />
            <mxPoint x="340" y="220" as="targetPoint" />
          </mxGeometry>
        </mxCell>
        <mxCell id="IOEPYr8WHagoMLOcUYXM-4" value="" style="endArrow=classic;html=1;rounded=0;strokeColor=#00FF00;" edge="1" parent="1">
          <mxGeometry width="50" height="50" relative="1" as="geometry">
            <mxPoint x="360" y="240" as="sourcePoint" />
            <mxPoint x="310" y="290" as="targetPoint" />
          </mxGeometry>
        </mxCell>
        <mxCell id="IOEPYr8WHagoMLOcUYXM-5" value="Domain" style="text;html=1;strokeColor=none;fillColor=none;align=center;verticalAlign=middle;whiteSpace=wrap;rounded=0;" vertex="1" parent="1">
          <mxGeometry x="260" y="265" width="60" height="30" as="geometry" />
        </mxCell>
        <mxCell id="IOEPYr8WHagoMLOcUYXM-6" value="UI" style="text;html=1;strokeColor=none;fillColor=none;align=center;verticalAlign=middle;whiteSpace=wrap;rounded=0;" vertex="1" parent="1">
          <mxGeometry x="240" y="330" width="60" height="30" as="geometry" />
        </mxCell>
        <mxCell id="IOEPYr8WHagoMLOcUYXM-7" value="DB" style="text;html=1;strokeColor=none;fillColor=none;align=center;verticalAlign=middle;whiteSpace=wrap;rounded=0;" vertex="1" parent="1">
          <mxGeometry x="310" y="320" width="60" height="30" as="geometry" />
        </mxCell>
      </root>
    </mxGraphModel>
  </diagram>
</mxfile>
